<svg xmlns="http://www.w3.org/2000/svg" width="500" height="104" viewBox="0 0 500 104" version="1.1"><path d="M 0 10.500 L 0 21 5.500 21 L 11 21 11 16 L 11 11 16 11 L 21 11 21 5.500 L 21 0 10.500 0 L 0 0 0 10.500 M 84 5.500 L 84 11 89.500 11 L 95 11 95 16 L 95 21 100 21 L 105 21 105 10.500 L 105 0 94.500 0 L 84 0 84 5.500 M 28.490 21.626 L 21.684 33.253 23.736 34.876 C 46.243 52.687, 45.931 51.731, 32.913 62.929 C 26.885 68.115, 22.076 72.667, 22.226 73.046 C 22.377 73.424, 25.425 78.739, 29 84.857 L 35.500 95.981 52.541 95.990 L 69.583 96 76.455 84.321 L 83.328 72.642 76.422 66.571 C 72.623 63.232, 67.588 58.700, 65.231 56.500 L 60.946 52.500 71.979 43 L 83.011 33.500 82.452 32 C 82.144 31.175, 79.169 25.887, 75.839 20.250 L 69.786 10 52.541 10 L 35.297 10 28.490 21.626 M 39.086 25.015 C 35.186 31.353, 34.776 30.294, 44.350 38.617 L 52.536 45.734 60.518 38.692 C 69.960 30.363, 69.797 30.779, 65.993 24.750 L 62.996 20 52.584 20 L 42.172 20 39.086 25.015 M 140 51 L 140 77 155 77 L 170 77 170 72.500 L 170 68 159.500 68 L 149 68 149 46.500 L 149 25 144.500 25 L 140 25 140 51 M 381 29.500 L 381 34 388.500 34 L 396 34 396 55.500 L 396 77 400.500 77 L 405 77 405 55.500 L 405 34 412 34 L 419 34 419 29.500 L 419 25 400 25 L 381 25 381 29.500 M 95 35 L 95 40 100 40 L 105 40 105 35 L 105 30 100 30 L 95 30 95 35 M 0 44 L 0 49 5.500 49 L 11 49 11 44 L 11 39 5.500 39 L 0 39 0 44 M 182.481 40.394 L 179.463 41.709 176.273 45.341 L 173.084 48.974 171.973 53.099 L 170.862 57.225 171.549 61.363 C 172.806 68.930, 176.430 73.610, 183.232 76.452 L 186.936 78 191.500 78 L 196.064 78 199.768 76.452 C 207.739 73.122, 209.380 70.070, 204.770 67.151 L 201.540 65.106 200.018 66.484 C 199.181 67.241, 197.152 68.372, 195.509 68.997 L 192.521 70.133 189.382 69.544 L 186.244 68.955 183.622 66.525 C 182.180 65.189, 181 63.624, 181 63.048 L 181 62 195.640 62 L 210.280 62 209.692 56.305 L 209.104 50.609 206.302 46.658 L 203.500 42.707 200.016 40.853 L 196.531 39 191.016 39.039 L 185.500 39.078 182.481 40.394 M 224.500 40.108 C 221.225 42.007, 216.918 46.315, 215.411 49.200 L 214 51.901 214 58 L 214 64.099 215.449 66.901 C 216.246 68.442, 218.504 71.113, 220.467 72.837 L 224.037 75.971 226.565 76.606 L 229.092 77.240 234.554 76.787 L 240.015 76.334 242.508 73.993 L 245 71.651 245 73.358 C 245 74.296, 244.363 76.589, 243.585 78.452 L 242.169 81.839 240.150 82.920 L 238.131 84 233.642 84 L 229.153 84 226.082 81.415 L 223.010 78.831 219.511 80.993 L 216.013 83.155 217 85 C 217.543 86.015, 219.143 87.754, 220.554 88.864 L 223.122 90.883 228.496 91.999 L 233.871 93.115 237.685 92.446 L 241.500 91.776 245.620 89.422 L 249.740 87.068 251.370 83.633 L 253 80.198 253 60.099 L 253 40 249 40 L 245 40 245 42.174 L 245 44.349 242.451 41.954 L 239.903 39.560 233.201 39.254 L 226.500 38.949 224.500 40.108 M 270.500 40.164 C 267.216 41.976, 262.927 46.300, 261.239 49.500 L 259.657 52.500 259.701 58.554 L 259.746 64.607 261.283 67.554 C 263.292 71.401, 267.783 75.602, 271.315 76.936 L 274.130 78 278.354 78 L 282.577 78 286.289 76.108 L 290 74.216 290 75.608 L 290 77 294.500 77 L 299 77 299 58.500 L 299 40 294.500 40 L 290 40 290 41.485 L 290 42.971 286.750 40.989 L 283.500 39.007 278 39.034 L 272.500 39.061 270.500 40.164 M 316.481 40.394 L 313.463 41.709 310.273 45.341 L 307.084 48.974 305.973 53.099 L 304.862 57.225 305.549 61.363 C 306.806 68.930, 310.430 73.610, 317.232 76.452 L 320.936 78 325.218 77.978 L 329.500 77.956 333.579 76.104 L 337.657 74.251 339.829 71.491 C 342.643 67.912, 342.616 67.787, 338.550 65.597 L 335.099 63.739 331.973 66.369 L 328.847 69 325.146 69 L 321.445 69 319.217 67.439 C 317.991 66.581, 316.276 64.501, 315.406 62.818 L 313.823 59.757 314.427 56.538 L 315.031 53.320 317.265 51.227 C 318.494 50.075, 320.689 48.683, 322.143 48.132 L 324.785 47.131 327.143 47.701 C 328.439 48.015, 330.707 49.391, 332.183 50.759 L 334.866 53.246 338.433 51.041 C 343.174 48.112, 340.502 43.009, 332.685 40.061 L 329.870 39 324.685 39.039 L 319.500 39.078 316.481 40.394 M 426.500 40.108 C 423.225 42.007, 418.918 46.315, 417.411 49.200 L 416 51.901 416.002 58.200 L 416.003 64.500 417.752 67.929 L 419.500 71.358 423.265 74.366 L 427.031 77.375 432.765 77.753 L 438.500 78.131 442.250 76.173 L 446 74.216 446 75.608 L 446 77 450.500 77 L 455 77 455 58.500 L 455 40 450.500 40 L 446 40 446 41.655 L 446 43.310 443.927 41.434 L 441.853 39.557 435.177 39.253 L 428.500 38.949 426.500 40.108 M 470.479 41.430 L 466.458 43.840 464.062 48.103 L 461.667 52.365 461.667 58.060 L 461.667 63.755 464.235 68.138 L 466.804 72.521 470.788 74.761 L 474.772 77 480.136 76.996 L 485.500 76.993 488.750 75.011 L 492 73.029 492 76.060 L 492 79.091 489.545 81.545 L 487.091 84 482.122 84 L 477.153 84 474.123 81.450 L 471.093 78.901 468.110 80.443 C 466.469 81.292, 464.840 82.450, 464.489 83.018 L 463.851 84.051 467.210 87.410 L 470.569 90.769 476.220 91.942 L 481.871 93.115 485.685 92.424 C 490.934 91.473, 494.303 89.618, 497.346 86.001 L 499.929 82.931 500.268 92.715 C 500.454 98.097, 500.500 92.600, 500.369 80.500 C 500.238 68.400, 500.101 54.337, 500.065 49.250 L 500 40 496 40 L 492 40 492 41.485 L 492 42.971 488.750 40.989 L 485.500 39.007 480 39.013 L 474.500 39.019 470.479 41.430 M 343 40.791 C 343 41.227, 346.385 49.354, 350.522 58.852 L 358.043 76.121 357.373 77.310 C 357.004 77.965, 355.791 79.513, 354.677 80.750 L 352.651 83 350.326 83 L 348 83 348 87.628 L 348 92.256 352.250 91.600 L 356.500 90.944 359 89.130 C 360.375 88.132, 362.445 85.929, 363.600 84.233 L 365.699 81.150 372.767 62.325 C 376.654 51.971, 380.145 42.712, 380.524 41.750 L 381.214 40 376.241 40 L 371.269 40 366.884 52.422 L 362.500 64.844 357.500 52.428 L 352.500 40.012 347.750 40.006 L 343 40 343 40.791 M 183.923 49.923 C 182.315 51.531, 181 53.331, 181 53.923 L 181 55 190.979 55 L 200.957 55 199.784 52.425 L 198.611 49.850 195.855 48.425 L 193.099 47 189.973 47 L 186.846 47 183.923 49.923 M 229.500 47.907 C 228.400 48.388, 226.426 49.937, 225.114 51.350 L 222.727 53.919 222.727 58.054 L 222.727 62.189 225.883 65.344 L 229.038 68.500 233.500 68.500 L 237.962 68.500 241.117 65.344 L 244.273 62.189 244.273 58 L 244.273 53.811 241.337 50.875 L 238.401 47.939 234.950 47.486 L 231.500 47.034 229.500 47.907 M 275.500 47.954 C 274.400 48.409, 272.430 49.933, 271.123 51.340 L 268.746 53.899 268.641 57.901 L 268.536 61.902 270.612 64.701 L 272.687 67.500 276.056 68.619 L 279.425 69.738 282.463 68.884 L 285.500 68.030 287.745 65.265 L 289.990 62.500 289.995 58.473 L 290 54.445 288.439 52.217 C 285.460 47.963, 279.903 46.133, 275.500 47.954 M 431.096 48.265 C 429.774 48.944, 427.772 50.740, 426.646 52.256 L 424.600 55.013 424.600 58.500 L 424.600 61.987 426.644 64.744 L 428.687 67.500 432.056 68.619 L 435.425 69.738 438.463 68.887 L 441.500 68.035 443.750 65.462 L 446 62.888 446 58.667 L 446 54.445 444.439 52.217 C 441.266 47.686, 435.529 45.987, 431.096 48.265 M 476 48.638 C 472.643 51.015, 471.215 52.971, 470.478 56.203 L 469.862 58.906 471.484 62.324 L 473.105 65.742 476.393 67.512 L 479.680 69.283 483.280 68.607 L 486.879 67.932 489.440 64.889 L 492 61.847 492 57.939 L 492 54.032 489.250 50.954 L 486.500 47.877 482.500 47.372 L 478.500 46.868 476 48.638 M 95 61.500 L 95 67 100 67 L 105 67 105 61.500 L 105 56 100 56 L 95 56 95 61.500 M 46.950 65.137 L 41.500 70.125 45.500 69.610 C 47.700 69.327, 51.862 68.791, 54.750 68.419 L 60 67.742 60 66.955 C 60 66.522, 58.290 64.814, 56.200 63.159 L 52.400 60.149 46.950 65.137 M 1 71 L 1 76 6 76 L 11 76 11 71 L 11 66 6 66 L 1 66 1 71 M 1 94 L 1 104 11 104 L 21 104 21 99.500 L 21 95 16 95 L 11 95 11 89.500 L 11 84 6 84 L 1 84 1 94 M 95 89.500 L 95 95 89.500 95 L 84 95 84 99.500 L 84 104 94.500 104 L 105 104 105 94 L 105 84 100 84 L 95 84 95 89.500" stroke="none" fill="#fcfcfc" fill-rule="evenodd"/></svg>