<svg width="134" height="42" viewBox="0 0 134 42" fill="none" xmlns="http://www.w3.org/2000/svg">
<path d="M57.5688 30.5681C57.6648 30.5681 57.7128 30.6401 57.7128 30.7841C57.7128 30.9281 57.6648 31.0001 57.5688 31.0001H53.6808C53.1048 31.0001 52.2408 29.9681 51.0888 27.9041C49.9608 25.8161 48.6768 22.9241 47.2368 19.2281C46.5648 19.4441 45.8328 19.5521 45.0408 19.5521L43.8888 19.4801L42.3768 28.0841C42.2808 28.5401 42.2328 28.9481 42.2328 29.3081C42.2328 29.8121 42.4008 30.1481 42.7368 30.3161C43.0728 30.4841 43.6968 30.5681 44.6088 30.5681C44.7048 30.5681 44.7528 30.6401 44.7528 30.7841C44.7528 30.9281 44.7168 31.0001 44.6448 31.0001C43.9488 31.0001 43.4088 30.9881 43.0248 30.9641L40.7928 30.9281L38.5968 30.9641C38.1888 30.9881 37.6368 31.0001 36.9408 31.0001C36.8448 31.0001 36.7968 30.9281 36.7968 30.7841C36.7968 30.6401 36.8448 30.5681 36.9408 30.5681C37.7568 30.5681 38.3688 30.5081 38.7768 30.3881C39.2088 30.2441 39.5328 30.0041 39.7488 29.6681C39.9648 29.3321 40.1448 28.8041 40.2888 28.0841L43.2408 11.4161C43.3368 10.7921 43.3848 10.4081 43.3848 10.2641C43.3848 9.73609 43.2048 9.38809 42.8448 9.22009C42.5088 9.02809 41.8728 8.93209 40.9368 8.93209C40.8408 8.93209 40.7928 8.86009 40.7928 8.71609C40.7928 8.57209 40.8408 8.50009 40.9368 8.50009L42.5208 8.53609C43.4328 8.58409 44.1648 8.60809 44.7168 8.60809C45.1008 8.60809 45.4608 8.59609 45.7968 8.57209C46.1568 8.54809 46.4688 8.52409 46.7328 8.50009C47.4288 8.42809 48.0408 8.39209 48.5688 8.39209C50.1288 8.39209 51.3168 8.70409 52.1328 9.32809C52.9728 9.92809 53.3928 10.7801 53.3928 11.8841C53.3928 13.2041 52.9728 14.4641 52.1328 15.6641C51.3168 16.8641 50.2608 17.8121 48.9648 18.5081C50.3088 21.6041 51.4488 24.0161 52.3848 25.7441C53.3208 27.4481 54.1848 28.6841 54.9768 29.4521C55.7928 30.1961 56.6568 30.5681 57.5688 30.5681ZM44.0688 18.6161C44.5728 18.6881 45.1248 18.7241 45.7248 18.7241C47.2848 18.7241 48.4608 18.3641 49.2528 17.6441C50.0688 16.9241 50.6208 15.7481 50.9088 14.1161C51.0048 13.5641 51.0528 13.0121 51.0528 12.4601C51.0528 11.2361 50.7648 10.3481 50.1888 9.79609C49.6128 9.22009 48.8208 8.93209 47.8128 8.93209C47.2128 8.93209 46.7688 8.98009 46.4808 9.07609C46.1928 9.14809 45.9528 9.36409 45.7608 9.72409C45.5928 10.0841 45.4488 10.6721 45.3288 11.4881L44.0688 18.6161Z" fill="white"/>
<path d="M68.2852 18.2561C68.2852 19.0001 67.8892 19.7201 67.0972 20.4161C66.3292 21.0881 65.2852 21.6761 63.9652 22.1801C62.6692 22.6841 61.2652 23.0561 59.7532 23.2961C59.6332 24.0641 59.5732 24.7241 59.5732 25.2761C59.5732 26.7641 59.9092 27.9641 60.5812 28.8761C61.2532 29.7641 62.2012 30.2081 63.4252 30.2081C64.7692 30.2081 65.9692 29.8121 67.0252 29.0201H67.0972C67.1692 29.0201 67.2292 29.0561 67.2772 29.1281C67.3492 29.2001 67.3492 29.2721 67.2772 29.3441C65.5972 30.7361 63.8452 31.4321 62.0212 31.4321C60.5092 31.4321 59.3572 30.9521 58.5652 29.9921C57.7972 29.0081 57.4132 27.7481 57.4132 26.2121C57.4132 25.6841 57.4732 25.0601 57.5932 24.3401C57.8092 23.1161 58.3132 21.9161 59.1052 20.7401C59.8972 19.5401 60.8812 18.5561 62.0572 17.7881C63.2572 17.0201 64.5052 16.6361 65.8012 16.6361C66.5932 16.6361 67.2052 16.7801 67.6372 17.0681C68.0692 17.3561 68.2852 17.7521 68.2852 18.2561ZM64.2172 17.6081C63.1132 17.6081 62.1772 18.1001 61.4092 19.0841C60.6652 20.0441 60.1492 21.2801 59.8612 22.7921C61.5412 22.5041 62.8972 22.0721 63.9292 21.4961C64.9852 20.9201 65.6212 20.2001 65.8372 19.3361C65.8852 19.0961 65.9092 18.9281 65.9092 18.8321C65.9092 18.4241 65.7412 18.1241 65.4052 17.9321C65.0692 17.7161 64.6732 17.6081 64.2172 17.6081Z" fill="white"/>
<path d="M90.7771 28.2281C90.8251 28.1801 90.8731 28.1561 90.9211 28.1561C90.9931 28.1561 91.0531 28.2041 91.1011 28.3001C91.1491 28.3721 91.1371 28.4441 91.0651 28.5161C90.2491 29.4761 89.5171 30.1841 88.8691 30.6401C88.2451 31.0961 87.6331 31.3241 87.0331 31.3241C86.6011 31.3241 86.2891 31.2041 86.0971 30.9641C85.9051 30.7001 85.8091 30.2921 85.8091 29.7401C85.8091 29.2361 85.8811 28.5881 86.0251 27.7961L87.0691 22.0721C87.1891 21.4481 87.2491 20.8001 87.2491 20.1281C87.2491 19.4321 87.1291 18.9161 86.8891 18.5801C86.6731 18.2201 86.3251 18.0401 85.8451 18.0401C85.1011 18.0401 84.3211 18.5321 83.5051 19.5161C82.7131 20.4761 81.9451 21.8921 81.2011 23.7641C80.4811 25.6121 79.8811 27.7961 79.4011 30.3161L79.3291 30.7481C79.3051 30.9161 79.1971 31.0481 79.0051 31.1441C78.8131 31.2401 78.5491 31.2881 78.2131 31.2881C77.8771 31.2881 77.6491 31.2641 77.5291 31.2161C77.4331 31.1921 77.3851 31.1441 77.3851 31.0721L77.5651 30.2441L79.1131 22.0721C79.2091 21.4241 79.2571 20.8121 79.2571 20.2361C79.2571 18.7721 78.8131 18.0401 77.9251 18.0401C77.1811 18.0401 76.4011 18.5321 75.5851 19.5161C74.7691 20.5001 74.0011 21.9281 73.2811 23.8001C72.5611 25.6721 71.9731 27.8681 71.5171 30.3881L71.4451 30.7481C71.3731 31.1081 70.9891 31.2881 70.2931 31.2881C69.9571 31.2881 69.7291 31.2641 69.6091 31.2161C69.5131 31.1921 69.4651 31.1441 69.4651 31.0721C69.4651 31.0481 69.5611 30.5561 69.7531 29.5961L69.9691 28.5161L71.4811 20.3081C71.5531 19.9481 71.5891 19.6241 71.5891 19.3361C71.5891 18.5681 71.3491 18.1841 70.8691 18.1841C70.5811 18.1841 70.2091 18.3281 69.7531 18.6161C69.3211 18.9041 68.8651 19.3121 68.3851 19.8401C68.3611 19.8641 68.3251 19.8761 68.2771 19.8761C68.2051 19.8761 68.1331 19.8401 68.0611 19.7681C68.0131 19.6721 68.0251 19.6001 68.0971 19.5521C68.9131 18.6161 69.6571 17.9201 70.3291 17.4641C71.0251 17.0081 71.6851 16.7801 72.3091 16.7801C72.7171 16.7801 73.0171 16.9121 73.2091 17.1761C73.4011 17.4161 73.4971 17.8121 73.4971 18.3641C73.4971 18.9881 73.4371 19.6121 73.3171 20.2361L72.5971 24.3041C73.4371 21.9041 74.4211 20.0321 75.5491 18.6881C76.7011 17.3201 77.8891 16.6361 79.1131 16.6361C79.8331 16.6361 80.3611 16.8521 80.6971 17.2841C81.0571 17.6921 81.2371 18.3521 81.2371 19.2641C81.2371 19.8401 81.1651 20.5481 81.0211 21.3881L80.4451 24.5561C81.2851 22.0601 82.2811 20.1161 83.4331 18.7241C84.5851 17.3321 85.7851 16.6361 87.0331 16.6361C87.7771 16.6361 88.3291 16.8521 88.6891 17.2841C89.0491 17.7161 89.2291 18.4001 89.2291 19.3361C89.2291 19.9121 89.1571 20.5961 89.0131 21.3881L87.8611 27.7961C87.7891 28.1801 87.7531 28.5041 87.7531 28.7681C87.7531 29.5121 87.9691 29.8841 88.4011 29.8841C88.9291 29.8841 89.7211 29.3321 90.7771 28.2281Z" fill="white"/>
<path d="M95.9841 31.5041C94.5681 31.5041 93.4521 31.0001 92.6361 29.9921C91.8441 28.9841 91.4481 27.6641 91.4481 26.0321C91.4481 25.2881 91.5081 24.6281 91.6281 24.0521C91.8921 22.6601 92.3961 21.4001 93.1401 20.2721C93.8841 19.1441 94.7841 18.2561 95.8401 17.6081C96.8961 16.9601 98.0121 16.6361 99.1881 16.6361C100.676 16.6361 101.828 17.1401 102.644 18.1481C103.46 19.1321 103.868 20.4161 103.868 22.0001C103.868 22.6721 103.796 23.3561 103.652 24.0521C103.364 25.5161 102.824 26.8241 102.032 27.9761C101.24 29.1041 100.304 29.9801 99.2241 30.6041C98.1681 31.2041 97.0881 31.5041 95.9841 31.5041ZM97.2441 30.6041C98.2521 30.6041 99.1641 30.1601 99.9801 29.2721C100.796 28.3841 101.348 27.1721 101.636 25.6361C101.756 24.8681 101.816 24.1721 101.816 23.5481C101.816 21.8921 101.492 20.4761 100.844 19.3001C100.22 18.1001 99.3201 17.5001 98.1441 17.5001C97.1121 17.5001 96.1881 17.9561 95.3721 18.8681C94.5561 19.7561 93.9921 20.9681 93.6801 22.5041C93.5361 23.2241 93.4641 23.9561 93.4641 24.7001C93.4641 26.3081 93.8001 27.7001 94.4721 28.8761C95.1441 30.0281 96.0681 30.6041 97.2441 30.6041Z" fill="white"/>
<path d="M119.22 28.2281C119.268 28.1801 119.304 28.1561 119.328 28.1561C119.4 28.1561 119.46 28.2041 119.508 28.3001C119.58 28.3721 119.58 28.4441 119.508 28.5161C118.692 29.4761 117.96 30.1841 117.312 30.6401C116.688 31.0961 116.076 31.3241 115.476 31.3241C115.044 31.3241 114.72 31.2041 114.504 30.9641C114.312 30.7001 114.216 30.2801 114.216 29.7041C114.216 29.2241 114.288 28.5881 114.432 27.7961L115.476 22.0721C115.62 21.3041 115.692 20.6561 115.692 20.1281C115.692 18.7361 115.176 18.0401 114.144 18.0401C113.352 18.0401 112.524 18.5441 111.66 19.5521C110.82 20.5601 110.028 22.0361 109.284 23.9801C108.54 25.9001 107.94 28.1561 107.484 30.7481C107.436 30.9161 107.304 31.0481 107.088 31.1441C106.896 31.2401 106.632 31.2881 106.296 31.2881C105.96 31.2881 105.732 31.2641 105.612 31.2161C105.516 31.1921 105.468 31.1441 105.468 31.0721L105.612 30.2441C105.756 29.6681 105.888 29.0321 106.008 28.3361L107.484 20.3081C107.556 19.9481 107.592 19.6241 107.592 19.3361C107.592 18.5681 107.352 18.1841 106.872 18.1841C106.584 18.1841 106.212 18.3281 105.756 18.6161C105.324 18.9041 104.868 19.3121 104.388 19.8401C104.364 19.8641 104.328 19.8761 104.28 19.8761C104.208 19.8761 104.136 19.8401 104.064 19.7681C104.016 19.6721 104.028 19.6001 104.1 19.5521C104.916 18.6161 105.66 17.9201 106.332 17.4641C107.028 17.0081 107.688 16.7801 108.312 16.7801C108.72 16.7801 109.02 16.9121 109.212 17.1761C109.404 17.4161 109.5 17.8121 109.5 18.3641C109.5 18.9881 109.44 19.6121 109.32 20.2361L108.564 24.5921C109.428 22.0961 110.448 20.1521 111.624 18.7601C112.8 17.3441 114.036 16.6361 115.332 16.6361C116.124 16.6361 116.712 16.8521 117.096 17.2841C117.48 17.7161 117.672 18.4001 117.672 19.3361C117.672 19.9121 117.6 20.5961 117.456 21.3881L116.268 27.7961C116.196 28.1561 116.16 28.4801 116.16 28.7681C116.16 29.5121 116.4 29.8841 116.88 29.8841C117.384 29.8841 118.164 29.3321 119.22 28.2281Z" fill="white"/>
<path d="M131.886 16.7441C132.798 16.7441 133.254 17.4041 133.254 18.7241C133.254 20.6921 132.318 23.5001 130.446 27.1481C128.598 30.7721 126.462 34.0001 124.038 36.8321C121.614 39.6881 119.598 41.1161 117.99 41.1161C117.51 41.1161 117.138 40.9961 116.874 40.7561C116.586 40.5161 116.478 40.1321 116.55 39.6041C116.694 38.9561 117.174 38.6321 117.99 38.6321C119.022 38.6321 119.85 38.5841 120.474 38.4881C121.122 38.4161 121.722 38.1761 122.274 37.7681C123.018 37.2641 123.99 36.1721 125.19 34.4921L125.226 32.6561C125.226 28.1441 124.854 24.6401 124.11 22.1441C123.39 19.6241 122.394 18.3641 121.122 18.3641C120.378 18.3641 119.778 18.8081 119.322 19.6961C119.298 19.7681 119.226 19.8041 119.106 19.8041C118.938 19.8041 118.866 19.7321 118.89 19.5881C119.802 17.7161 120.918 16.7801 122.238 16.7801C123.246 16.7801 124.11 17.3561 124.83 18.5081C125.55 19.6601 126.102 21.2321 126.486 23.2241C126.87 25.2161 127.062 27.4481 127.062 29.9201C127.062 30.7601 127.05 31.3961 127.026 31.8281C128.058 30.2201 128.97 28.6361 129.762 27.0761C130.554 25.5161 131.058 24.2921 131.274 23.4041C131.394 22.9481 131.454 22.4441 131.454 21.8921C131.454 21.0761 131.262 20.1161 130.878 19.0121C130.686 18.5561 130.59 18.1961 130.59 17.9321C130.59 17.5961 130.71 17.3201 130.95 17.1041C131.19 16.8641 131.502 16.7441 131.886 16.7441Z" fill="white"/>
<g clip-path="url(#clip0)">
<path d="M19.7442 27.1106L19.7439 27.1109C19.4764 27.3115 19.4223 27.6909 19.623 27.9584C19.7419 28.117 19.9237 28.2006 20.1078 28.2006C20.2343 28.2006 20.3619 28.1611 20.4708 28.0795C20.7383 27.8788 20.7925 27.4993 20.5919 27.2318C20.3913 26.9642 20.0118 26.91 19.7442 27.1106Z" fill="white"/>
<path d="M17.7442 28.4536C15.1819 30.0857 13.922 30.0285 12.2228 29.3053L6.07755 26.6767C5.93902 26.6175 5.78347 26.612 5.64112 26.6613L2.6941 27.6828C2.37817 27.7924 2.21088 28.1373 2.32034 28.4532C2.42981 28.7692 2.77445 28.9366 3.09075 28.8271L5.81659 27.8823L11.7476 30.4192C12.6469 30.8019 13.4499 31.0001 14.2514 31.0001C15.5132 31.0001 16.7712 30.5092 18.3949 29.475C18.6769 29.2953 18.7599 28.9211 18.5803 28.639C18.4006 28.3569 18.0263 28.2738 17.7442 28.4536Z" fill="white"/>
<path d="M28.4037 20.2023C28.1541 19.745 27.728 19.4186 27.204 19.2832C26.6149 19.1312 25.9498 19.2395 25.4245 19.5731L20.7108 22.5665C20.4002 21.7243 19.5602 21.1508 18.6212 21.2185L18.5253 21.2254V10.0852C18.5253 9.08368 17.7105 8.26883 16.709 8.26883H16.1034V6.99516C16.6663 6.88108 17.203 6.60674 17.6386 6.17111C18.8189 4.9908 18.8189 3.07024 17.6386 1.88986L15.9261 0.177343C15.8126 0.0638169 15.6586 0 15.498 0C15.3373 0 15.1834 0.0638169 15.0698 0.177343L13.3574 1.8898C12.7856 2.46161 12.4707 3.22185 12.4707 4.03046C12.4707 4.83907 12.7856 5.5993 13.3574 6.17111C13.7931 6.60674 14.3296 6.88108 14.8925 6.99516V8.26877H14.287C13.2854 8.26877 12.4706 9.08362 12.4706 10.0852C12.4706 10.4196 12.7417 10.6907 13.0761 10.6907C13.4104 10.6907 13.6815 10.4196 13.6815 10.0852C13.6815 9.75133 13.9532 9.47972 14.287 9.47972H16.709C17.0428 9.47972 17.3144 9.75133 17.3144 10.0852V21.3125L16.3139 21.3845C14.6854 21.5018 14.5618 21.4988 13.6815 20.9931V14.9291C13.6815 14.5947 13.4104 14.3236 13.0761 14.3236C12.7417 14.3236 12.4706 14.5947 12.4706 14.9291V20.3102C11.0763 19.577 9.5039 19.2812 7.66804 19.4089C6.24591 19.5077 4.6672 19.8611 2.69983 20.521C2.38281 20.6273 2.21194 20.9705 2.31826 21.2875C2.42464 21.6046 2.76771 21.7753 3.08485 21.669C5.95116 20.7077 9.25214 19.9278 12.0038 21.4323C12.3577 21.6258 12.6349 21.7864 12.8795 21.9282C14.1281 22.652 14.3661 22.7387 16.4008 22.5924L18.7081 22.4263C19.1792 22.3922 19.591 22.7483 19.6249 23.22C19.6309 23.303 19.6241 23.3811 19.6068 23.4539C19.6049 23.4609 19.603 23.4679 19.6014 23.475C19.5026 23.8399 19.1334 24.0713 18.7557 24.147C17.3588 24.4269 16.0098 24.6762 14.7052 24.9172C14.0406 25.04 13.376 25.1629 12.7023 25.2901C12.3737 25.3521 12.1576 25.6688 12.2197 25.9974C12.2817 26.326 12.5989 26.5421 12.927 26.48C13.5991 26.3531 14.2623 26.2306 14.9253 26.1081C16.2343 25.8662 17.5878 25.6161 18.9937 25.3344C19.8158 25.1697 20.4352 24.6667 20.6986 24.0087L26.0735 20.5954C26.3214 20.4381 26.6307 20.386 26.901 20.4557C27.0398 20.4916 27.2287 20.5773 27.3406 20.7825C27.5754 21.2126 27.5766 21.8082 27.1246 22.1142L21.7737 25.736C21.4968 25.9234 21.4243 26.2998 21.6117 26.5768C21.7287 26.7497 21.9194 26.8429 22.1136 26.8429C22.2304 26.8429 22.3485 26.8092 22.4525 26.7388L27.8034 23.117C28.7304 22.4895 28.9829 21.2637 28.4037 20.2023ZM14.2136 5.31485C13.8705 4.97179 13.6816 4.51568 13.6816 4.03052C13.6816 3.54535 13.8705 3.08925 14.2136 2.74619L15.498 1.46179L16.7824 2.74612C17.4905 3.45435 17.4905 4.60668 16.7824 5.31485C16.5875 5.50981 16.356 5.65482 16.1034 5.74382V4.99927C16.1034 4.66487 15.8323 4.3938 15.498 4.3938C15.1636 4.3938 14.8925 4.66487 14.8925 4.99927V5.74382C14.64 5.65476 14.4085 5.50975 14.2136 5.31485Z" fill="white"/>
<path d="M13.0761 13.1127C13.4105 13.1127 13.6816 12.8417 13.6816 12.5073V12.5068C13.6816 12.1724 13.4105 11.9016 13.0761 11.9016C12.7418 11.9016 12.4706 12.1729 12.4706 12.5073C12.4706 12.8417 12.7418 13.1127 13.0761 13.1127Z" fill="white"/>
</g>
<defs>
<clipPath id="clip0">
<rect width="31" height="31" fill="white"/>
</clipPath>
</defs>
</svg>
